<svg width="50" height="51" viewBox="0 0 50 51" fill="none" xmlns="http://www.w3.org/2000/svg">
<rect y="0.142609" width="50" height="50" rx="20" fill="#F7F7FC"/>
<path d="M31.7292 20.5509H29.75V20.3926C29.75 19.1328 29.2496 17.9246 28.3588 17.0339C27.468 16.1431 26.2598 15.6426 25 15.6426C23.7402 15.6426 22.532 16.1431 21.6412 17.0339C20.7504 17.9246 20.25 19.1328 20.25 20.3926V20.5509H18.2708C17.5387 20.5598 16.8391 20.8545 16.3213 21.3723C15.8036 21.89 15.5088 22.5896 15.5 23.3218V30.2884C15.5101 31.4401 15.9721 32.5417 16.7865 33.3561C17.6009 34.1705 18.7025 34.6325 19.8542 34.6426H30.1458C31.2975 34.6325 32.3991 34.1705 33.2135 33.3561C34.0279 32.5417 34.4899 31.4401 34.5 30.2884V23.3218C34.4912 22.5896 34.1964 21.89 33.6787 21.3723C33.1609 20.8545 32.4613 20.5598 31.7292 20.5509ZM22.625 20.3926C22.625 19.7627 22.8752 19.1586 23.3206 18.7132C23.766 18.2678 24.3701 18.0176 25 18.0176C25.6299 18.0176 26.234 18.2678 26.6794 18.7132C27.1248 19.1586 27.375 19.7627 27.375 20.3926V20.5509H22.625V20.3926ZM32.125 30.2884C32.1275 30.5491 32.0781 30.8076 31.9795 31.0488C31.881 31.2901 31.7353 31.5093 31.551 31.6936C31.3667 31.8779 31.1475 32.0236 30.9062 32.1221C30.665 32.2207 30.4064 32.2701 30.1458 32.2676H19.8542C19.5936 32.2701 19.335 32.2207 19.0938 32.1221C18.8525 32.0236 18.6333 31.8779 18.449 31.6936C18.2647 31.5093 18.119 31.2901 18.0205 31.0488C17.9219 30.8076 17.8725 30.5491 17.875 30.2884V23.3218C17.8718 23.269 17.8798 23.216 17.8985 23.1665C17.9173 23.1171 17.9463 23.0721 17.9837 23.0347C18.0212 22.9973 18.0661 22.9682 18.1156 22.9495C18.1651 22.9307 18.218 22.9227 18.2708 22.9259H20.25V23.9551C20.25 24.2701 20.3751 24.5721 20.5978 24.7948C20.8205 25.0175 21.1226 25.1426 21.4375 25.1426C21.7524 25.1426 22.0545 25.0175 22.2772 24.7948C22.4999 24.5721 22.625 24.2701 22.625 23.9551V22.9259H27.375V23.9551C27.375 24.2701 27.5001 24.5721 27.7228 24.7948C27.9455 25.0175 28.2476 25.1426 28.5625 25.1426C28.8774 25.1426 29.1795 25.0175 29.4022 24.7948C29.6249 24.5721 29.75 24.2701 29.75 23.9551V22.9259H31.7292C31.782 22.9227 31.8349 22.9307 31.8844 22.9495C31.9339 22.9682 31.9788 22.9973 32.0163 23.0347C32.0537 23.0721 32.0827 23.1171 32.1015 23.1665C32.1202 23.216 32.1282 23.269 32.125 23.3218V30.2884Z" fill="#65647D"/>
</svg>
