<svg width="50" height="51" viewBox="0 0 50 51" fill="none" xmlns="http://www.w3.org/2000/svg">
<rect y="0.142609" width="50" height="50" rx="20" fill="#F7F7FC"/>
<path d="M34.1527 32.6201L30.4753 28.9411C33.2269 25.264 32.4766 20.0525 28.7995 17.3008C25.1224 14.5492 19.9108 15.2995 17.1592 18.9766C14.4076 22.6537 15.1579 27.8653 18.835 30.6169C21.7888 32.8272 25.8457 32.8272 28.7995 30.6169L32.4784 34.2959C32.9408 34.7582 33.6903 34.7582 34.1526 34.2959C34.615 33.8335 34.615 33.084 34.1526 32.6217L34.1527 32.6201ZM23.8479 29.9068C20.5799 29.9068 17.9306 27.2576 17.9306 23.9895C17.9306 20.7215 20.5799 18.0722 23.8479 18.0722C27.1159 18.0722 29.7652 20.7215 29.7652 23.9895C29.7617 27.2561 27.1145 29.9033 23.8479 29.9068Z" fill="#65647D"/>
</svg>
