<svg width="50" height="51" viewBox="0 0 50 51" fill="none" xmlns="http://www.w3.org/2000/svg">
<rect y="0.142609" width="50" height="50" rx="20" fill="#F7F7FC"/>
<path d="M15.9995 33.3248C15.9995 33.7766 16.3655 34.143 16.8177 34.143C17.27 34.143 17.6359 33.7766 17.6359 33.3248C17.6359 30.4374 19.2981 27.8813 21.8891 26.6725C22.7857 27.2552 23.8524 27.5973 24.9991 27.5973C26.15 27.5973 27.2208 27.2529 28.1196 26.6661C28.8931 27.0312 29.6098 27.5224 30.2064 28.1186C31.5975 29.5102 32.3638 31.3591 32.3638 33.3248C32.3638 33.7766 32.7297 34.143 33.182 34.143C33.6342 34.143 34.0002 33.7766 34.0002 33.3248C34.0002 30.922 33.0637 28.6624 31.3634 26.9616C30.7944 26.3924 30.1332 25.9043 29.4237 25.5018C30.2372 24.5127 30.7266 23.2474 30.7266 21.8698C30.7266 18.7116 28.1568 16.1423 24.9991 16.1423C21.8413 16.1423 19.2716 18.7116 19.2716 21.8698C19.2716 23.2441 19.7589 24.5062 20.5688 25.4943C17.76 27.0757 15.9995 30.0305 15.9995 33.3248ZM24.9991 17.7787C27.2547 17.7787 29.0901 19.6141 29.0901 21.8698C29.0901 24.1254 27.2547 25.9608 24.9991 25.9608C22.7434 25.9608 20.908 24.1254 20.908 21.8698C20.908 19.6141 22.7434 17.7787 24.9991 17.7787Z" fill="#65647D" stroke="#65647D"/>
</svg>
