<svg width="23" height="23" viewBox="0 0 23 23" fill="none" xmlns="http://www.w3.org/2000/svg">
<path d="M11.9971 0.773438C9.82148 0.773437 7.69474 1.41858 5.8858 2.62727C4.07686 3.83597 2.66696 5.55393 1.8344 7.56392C1.00184 9.5739 0.784 11.7856 1.20844 13.9194C1.63287 16.0532 2.68052 18.0132 4.2189 19.5516C5.75728 21.09 7.71729 22.1376 9.85108 22.5621C11.9849 22.9865 14.1966 22.7687 16.2066 21.9361C18.2166 21.1035 19.9345 19.6936 21.1432 17.8847C22.3519 16.0758 22.9971 13.949 22.9971 11.7734C22.9936 8.85711 21.8336 6.06122 19.7714 3.99906C17.7093 1.93691 14.9134 0.776878 11.9971 0.773438ZM11.9971 20.7734C10.217 20.7734 8.47698 20.2456 6.99694 19.2567C5.5169 18.2677 4.36335 16.8621 3.68216 15.2176C3.00097 13.5731 2.82274 11.7635 3.17001 10.0176C3.51727 8.27179 4.37444 6.66815 5.63311 5.40948C6.89179 4.1508 8.49543 3.29364 10.2413 2.94637C11.9871 2.5991 13.7967 2.77733 15.4412 3.45852C17.0858 4.13971 18.4914 5.29326 19.4803 6.7733C20.4692 8.25335 20.9971 9.9934 20.9971 11.7734C20.9942 14.1595 20.045 16.447 18.3578 18.1342C16.6706 19.8214 14.3831 20.7705 11.9971 20.7734Z" fill="#625C55"/>
<path d="M16.9971 10.7734H12.9971V6.77344C12.9971 6.50822 12.8917 6.25387 12.7042 6.06633C12.5166 5.87879 12.2623 5.77344 11.9971 5.77344C11.7319 5.77344 11.4775 5.87879 11.29 6.06633C11.1024 6.25387 10.9971 6.50822 10.9971 6.77344V10.7734H6.99707C6.73185 10.7734 6.4775 10.8788 6.28996 11.0663C6.10243 11.2539 5.99707 11.5082 5.99707 11.7734C5.99707 12.0387 6.10243 12.293 6.28996 12.4805C6.4775 12.6681 6.73185 12.7734 6.99707 12.7734H10.9971V16.7734C10.9971 17.0387 11.1024 17.293 11.29 17.4805C11.4775 17.6681 11.7319 17.7734 11.9971 17.7734C12.2623 17.7734 12.5166 17.6681 12.7042 17.4805C12.8917 17.293 12.9971 17.0387 12.9971 16.7734V12.7734H16.9971C17.2623 12.7734 17.5166 12.6681 17.7042 12.4805C17.8917 12.293 17.9971 12.0387 17.9971 11.7734C17.9971 11.5082 17.8917 11.2539 17.7042 11.0663C17.5166 10.8788 17.2623 10.7734 16.9971 10.7734Z" fill="#625C55"/>
</svg>
