<svg width="23" height="23" viewBox="0 0 23 23" fill="none" xmlns="http://www.w3.org/2000/svg">
<path d="M11.9971 0.538208C9.82148 0.538208 7.69474 1.18335 5.8858 2.39204C4.07686 3.60074 2.66696 5.3187 1.8344 7.32869C1.00184 9.33868 0.784 11.5504 1.20844 13.6842C1.63287 15.818 2.68052 17.778 4.2189 19.3164C5.75728 20.8548 7.71729 21.9024 9.85108 22.3268C11.9849 22.7513 14.1966 22.5334 16.2066 21.7009C18.2166 20.8683 19.9345 19.4584 21.1432 17.6495C22.3519 15.8405 22.9971 13.7138 22.9971 11.5382C22.9936 8.62188 21.8336 5.82599 19.7714 3.76383C17.7093 1.70168 14.9134 0.541648 11.9971 0.538208ZM11.9971 20.5382C10.217 20.5382 8.47698 20.0104 6.99694 19.0214C5.5169 18.0325 4.36335 16.6269 3.68216 14.9824C3.00097 13.3378 2.82274 11.5282 3.17001 9.78239C3.51727 8.03656 4.37444 6.43292 5.63311 5.17425C6.89179 3.91557 8.49543 3.05841 10.2413 2.71114C11.9871 2.36387 13.7967 2.5421 15.4412 3.22329C17.0858 3.90448 18.4914 5.05803 19.4803 6.53807C20.4692 8.01812 20.9971 9.75817 20.9971 11.5382C20.9942 13.9243 20.045 16.2118 18.3578 17.899C16.6706 19.5861 14.3831 20.5353 11.9971 20.5382Z" fill="#625C55"/>
<path d="M16.9971 10.5382H6.99707C6.73185 10.5382 6.4775 10.6436 6.28996 10.8311C6.10243 11.0186 5.99707 11.273 5.99707 11.5382C5.99707 11.8034 6.10243 12.0578 6.28996 12.2453C6.4775 12.4329 6.73185 12.5382 6.99707 12.5382H16.9971C17.2623 12.5382 17.5166 12.4329 17.7042 12.2453C17.8917 12.0578 17.9971 11.8034 17.9971 11.5382C17.9971 11.273 17.8917 11.0186 17.7042 10.8311C17.5166 10.6436 17.2623 10.5382 16.9971 10.5382Z" fill="#625C55"/>
</svg>
